<svg xmlns="http://www.w3.org/2000/svg" xmlns:xlink="http://www.w3.org/1999/xlink" width="200" zoomAndPan="magnify" viewBox="0 0 150 37.5" height="50" preserveAspectRatio="xMidYMid meet" version="1.0"><defs><g/><clipPath id="09205286e4"><path d="M 0.988281 0 L 149.011719 0 L 149.011719 37.007812 L 0.988281 37.007812 Z M 0.988281 0 " clip-rule="nonzero"/></clipPath><clipPath id="16608e32df"><path d="M 1 0.132812 L 17 0.132812 L 17 20 L 1 20 Z M 1 0.132812 " clip-rule="nonzero"/></clipPath><clipPath id="dbb18d0739"><path d="M 31 0.132812 L 35 0.132812 L 35 20 L 31 20 Z M 31 0.132812 " clip-rule="nonzero"/></clipPath><clipPath id="243774351c"><path d="M 79 0.132812 L 95 0.132812 L 95 20 L 79 20 Z M 79 0.132812 " clip-rule="nonzero"/></clipPath><clipPath id="ab23c35a7c"><path d="M 99 0.132812 L 114 0.132812 L 114 20 L 99 20 Z M 99 0.132812 " clip-rule="nonzero"/></clipPath><clipPath id="d188908af3"><rect x="0" width="128" y="0" height="27"/></clipPath><clipPath id="ac5e3f4679"><rect x="0" width="92" y="0" height="9"/></clipPath></defs><g clip-path="url(#09205286e4)"><path fill="#ffffff" d="M 0.988281 0 L 149.011719 0 L 149.011719 37.007812 L 0.988281 37.007812 Z M 0.988281 0 " fill-opacity="1" fill-rule="nonzero"/><path fill="#ffffff" d="M 0.988281 0 L 149.011719 0 L 149.011719 37.007812 L 0.988281 37.007812 Z M 0.988281 0 " fill-opacity="1" fill-rule="nonzero"/></g><g transform="matrix(1, 0, 0, 1, 11, 2)"><g clip-path="url(#d188908af3)"><g clip-path="url(#16608e32df)"><g fill="#000000" fill-opacity="1"><g transform="translate(0.459017, 19.373655)"><g><path d="M 13.4375 -18.390625 L 15.65625 -18.390625 L 15.65625 -18.140625 C 15.550781 -18.140625 15.425781 -18.09375 15.28125 -18 C 15.144531 -17.90625 14.988281 -17.738281 14.8125 -17.5 C 14.644531 -17.269531 14.460938 -16.960938 14.265625 -16.578125 C 14.078125 -16.191406 13.890625 -15.703125 13.703125 -15.109375 L 9.015625 -1.46875 L 9.5 0 L 7.546875 0 L 2.546875 -14.59375 C 2.367188 -15.070312 2.195312 -15.53125 2.03125 -15.96875 C 1.863281 -16.40625 1.703125 -16.785156 1.546875 -17.109375 C 1.398438 -17.429688 1.257812 -17.679688 1.125 -17.859375 C 1 -18.046875 0.882812 -18.140625 0.78125 -18.140625 L 0.78125 -18.390625 L 3.875 -18.390625 L 3.875 -18.140625 C 3.769531 -18.140625 3.734375 -17.898438 3.765625 -17.421875 C 3.804688 -16.941406 3.9375 -16.335938 4.15625 -15.609375 L 8.90625 -1.8125 L 13.453125 -15.15625 C 14.140625 -17.144531 14.132812 -18.140625 13.4375 -18.140625 Z M 13.4375 -18.390625 "/></g></g></g></g><g fill="#000000" fill-opacity="1"><g transform="translate(16.899528, 19.373655)"><g><path d="M 0.890625 -4.640625 C 0.660156 -5.492188 0.609375 -6.335938 0.734375 -7.171875 C 0.859375 -8.015625 1.125 -8.785156 1.53125 -9.484375 C 1.9375 -10.191406 2.472656 -10.804688 3.140625 -11.328125 C 3.804688 -11.859375 4.566406 -12.238281 5.421875 -12.46875 C 6.328125 -12.707031 7.195312 -12.757812 8.03125 -12.625 C 8.875 -12.5 9.632812 -12.242188 10.3125 -11.859375 C 11 -11.472656 11.585938 -10.984375 12.078125 -10.390625 C 12.566406 -9.796875 12.914062 -9.148438 13.125 -8.453125 C 12.488281 -8.453125 11.804688 -8.425781 11.078125 -8.375 C 10.359375 -8.320312 9.703125 -8.226562 9.109375 -8.09375 C 9.597656 -8.113281 10.046875 -8.03125 10.453125 -7.84375 C 10.867188 -7.65625 11.222656 -7.40625 11.515625 -7.09375 C 11.816406 -6.78125 12.050781 -6.414062 12.21875 -6 C 12.394531 -5.582031 12.503906 -5.144531 12.546875 -4.6875 C 12.617188 -3.738281 12.421875 -2.921875 11.953125 -2.234375 C 11.492188 -1.546875 10.882812 -1.003906 10.125 -0.609375 C 9.363281 -0.222656 8.507812 0 7.5625 0.0625 C 6.625 0.125 5.710938 0 4.828125 -0.3125 C 3.953125 -0.625 3.15625 -1.132812 2.4375 -1.84375 C 1.71875 -2.550781 1.203125 -3.484375 0.890625 -4.640625 Z M 2.4375 -6.515625 C 2.488281 -6.015625 2.566406 -5.546875 2.671875 -5.109375 C 3.003906 -3.847656 3.507812 -2.859375 4.1875 -2.140625 C 4.875 -1.429688 5.613281 -0.941406 6.40625 -0.671875 C 7.195312 -0.410156 7.992188 -0.351562 8.796875 -0.5 C 9.597656 -0.65625 10.296875 -0.957031 10.890625 -1.40625 C 11.484375 -1.863281 11.914062 -2.445312 12.1875 -3.15625 C 12.457031 -3.863281 12.460938 -4.65625 12.203125 -5.53125 C 12.066406 -6 11.835938 -6.425781 11.515625 -6.8125 C 11.203125 -7.195312 10.816406 -7.476562 10.359375 -7.65625 C 9.910156 -7.84375 9.398438 -7.910156 8.828125 -7.859375 C 8.253906 -7.816406 7.640625 -7.609375 6.984375 -7.234375 C 6.359375 -6.859375 5.742188 -6.597656 5.140625 -6.453125 C 4.546875 -6.304688 3.992188 -6.25 3.484375 -6.28125 C 3.285156 -6.300781 3.097656 -6.320312 2.921875 -6.34375 C 2.753906 -6.375 2.59375 -6.429688 2.4375 -6.515625 Z M 11.109375 -8.59375 C 10.859375 -9.144531 10.539062 -9.675781 10.15625 -10.1875 C 9.769531 -10.707031 9.335938 -11.148438 8.859375 -11.515625 C 8.378906 -11.890625 7.851562 -12.15625 7.28125 -12.3125 C 6.707031 -12.46875 6.101562 -12.457031 5.46875 -12.28125 C 4.875 -12.125 4.375 -11.851562 3.96875 -11.46875 C 3.570312 -11.082031 3.253906 -10.632812 3.015625 -10.125 C 2.785156 -9.625 2.625 -9.078125 2.53125 -8.484375 C 2.4375 -7.890625 2.40625 -7.304688 2.4375 -6.734375 C 2.726562 -6.585938 3.078125 -6.5 3.484375 -6.46875 C 3.972656 -6.4375 4.507812 -6.492188 5.09375 -6.640625 C 5.675781 -6.785156 6.273438 -7.035156 6.890625 -7.390625 C 7.617188 -7.804688 8.347656 -8.097656 9.078125 -8.265625 C 9.816406 -8.441406 10.492188 -8.550781 11.109375 -8.59375 Z M 11.109375 -8.59375 "/></g></g></g><g clip-path="url(#dbb18d0739)"><g fill="#000000" fill-opacity="1"><g transform="translate(30.669763, 19.373655)"><g><path d="M 3.71875 0 L 0.6875 0 L 0.6875 -0.234375 C 0.71875 -0.234375 0.765625 -0.253906 0.828125 -0.296875 C 0.898438 -0.335938 0.96875 -0.429688 1.03125 -0.578125 C 1.09375 -0.734375 1.148438 -0.941406 1.203125 -1.203125 C 1.253906 -1.460938 1.28125 -1.8125 1.28125 -2.25 L 1.28125 -16.65625 C 1.207031 -17.113281 1.113281 -17.410156 1 -17.546875 C 0.894531 -17.679688 0.804688 -17.75 0.734375 -17.75 L 0.65625 -17.984375 L 3.109375 -18.90625 L 3.109375 -2.25 C 3.109375 -1.8125 3.128906 -1.460938 3.171875 -1.203125 C 3.222656 -0.941406 3.28125 -0.734375 3.34375 -0.578125 C 3.414062 -0.429688 3.488281 -0.335938 3.5625 -0.296875 C 3.632812 -0.253906 3.6875 -0.234375 3.71875 -0.234375 Z M 3.71875 0 "/></g></g></g></g><g fill="#000000" fill-opacity="1"><g transform="translate(35.041683, 19.373655)"><g><path d="M 4 -10.375 L 7.3125 -2.390625 L 10.34375 -9.65625 C 10.695312 -10.5 10.882812 -11.164062 10.90625 -11.65625 C 10.9375 -12.144531 10.773438 -12.390625 10.421875 -12.390625 L 10.421875 -12.625 L 12.625 -12.625 L 12.625 -12.390625 C 12.519531 -12.390625 12.394531 -12.34375 12.25 -12.25 C 12.113281 -12.164062 11.957031 -12.015625 11.78125 -11.796875 C 11.601562 -11.578125 11.40625 -11.269531 11.1875 -10.875 C 10.976562 -10.488281 10.738281 -10 10.46875 -9.40625 L 7.4375 -2.0625 L 8.296875 0 L 6.34375 0 L 2.09375 -10.265625 C 1.863281 -10.785156 1.617188 -11.269531 1.359375 -11.71875 C 1.097656 -12.164062 0.863281 -12.390625 0.65625 -12.390625 L 0.65625 -12.625 L 3.6875 -12.625 L 3.6875 -12.390625 C 3.550781 -12.390625 3.488281 -12.242188 3.5 -11.953125 C 3.519531 -11.660156 3.6875 -11.132812 4 -10.375 Z M 4 -10.375 "/></g></g></g><g fill="#000000" fill-opacity="1"><g transform="translate(48.314515, 19.373655)"><g><path d="M 0.890625 -4.640625 C 0.660156 -5.492188 0.609375 -6.335938 0.734375 -7.171875 C 0.859375 -8.015625 1.125 -8.785156 1.53125 -9.484375 C 1.9375 -10.191406 2.472656 -10.804688 3.140625 -11.328125 C 3.804688 -11.859375 4.566406 -12.238281 5.421875 -12.46875 C 6.328125 -12.707031 7.195312 -12.757812 8.03125 -12.625 C 8.875 -12.5 9.632812 -12.242188 10.3125 -11.859375 C 11 -11.472656 11.585938 -10.984375 12.078125 -10.390625 C 12.566406 -9.796875 12.914062 -9.148438 13.125 -8.453125 C 12.488281 -8.453125 11.804688 -8.425781 11.078125 -8.375 C 10.359375 -8.320312 9.703125 -8.226562 9.109375 -8.09375 C 9.597656 -8.113281 10.046875 -8.03125 10.453125 -7.84375 C 10.867188 -7.65625 11.222656 -7.40625 11.515625 -7.09375 C 11.816406 -6.78125 12.050781 -6.414062 12.21875 -6 C 12.394531 -5.582031 12.503906 -5.144531 12.546875 -4.6875 C 12.617188 -3.738281 12.421875 -2.921875 11.953125 -2.234375 C 11.492188 -1.546875 10.882812 -1.003906 10.125 -0.609375 C 9.363281 -0.222656 8.507812 0 7.5625 0.0625 C 6.625 0.125 5.710938 0 4.828125 -0.3125 C 3.953125 -0.625 3.15625 -1.132812 2.4375 -1.84375 C 1.71875 -2.550781 1.203125 -3.484375 0.890625 -4.640625 Z M 2.4375 -6.515625 C 2.488281 -6.015625 2.566406 -5.546875 2.671875 -5.109375 C 3.003906 -3.847656 3.507812 -2.859375 4.1875 -2.140625 C 4.875 -1.429688 5.613281 -0.941406 6.40625 -0.671875 C 7.195312 -0.410156 7.992188 -0.351562 8.796875 -0.5 C 9.597656 -0.65625 10.296875 -0.957031 10.890625 -1.40625 C 11.484375 -1.863281 11.914062 -2.445312 12.1875 -3.15625 C 12.457031 -3.863281 12.460938 -4.65625 12.203125 -5.53125 C 12.066406 -6 11.835938 -6.425781 11.515625 -6.8125 C 11.203125 -7.195312 10.816406 -7.476562 10.359375 -7.65625 C 9.910156 -7.84375 9.398438 -7.910156 8.828125 -7.859375 C 8.253906 -7.816406 7.640625 -7.609375 6.984375 -7.234375 C 6.359375 -6.859375 5.742188 -6.597656 5.140625 -6.453125 C 4.546875 -6.304688 3.992188 -6.25 3.484375 -6.28125 C 3.285156 -6.300781 3.097656 -6.320312 2.921875 -6.34375 C 2.753906 -6.375 2.59375 -6.429688 2.4375 -6.515625 Z M 11.109375 -8.59375 C 10.859375 -9.144531 10.539062 -9.675781 10.15625 -10.1875 C 9.769531 -10.707031 9.335938 -11.148438 8.859375 -11.515625 C 8.378906 -11.890625 7.851562 -12.15625 7.28125 -12.3125 C 6.707031 -12.46875 6.101562 -12.457031 5.46875 -12.28125 C 4.875 -12.125 4.375 -11.851562 3.96875 -11.46875 C 3.570312 -11.082031 3.253906 -10.632812 3.015625 -10.125 C 2.785156 -9.625 2.625 -9.078125 2.53125 -8.484375 C 2.4375 -7.890625 2.40625 -7.304688 2.4375 -6.734375 C 2.726562 -6.585938 3.078125 -6.5 3.484375 -6.46875 C 3.972656 -6.4375 4.507812 -6.492188 5.09375 -6.640625 C 5.675781 -6.785156 6.273438 -7.035156 6.890625 -7.390625 C 7.617188 -7.804688 8.347656 -8.097656 9.078125 -8.265625 C 9.816406 -8.441406 10.492188 -8.550781 11.109375 -8.59375 Z M 11.109375 -8.59375 "/></g></g></g><g fill="#000000" fill-opacity="1"><g transform="translate(62.084749, 19.373655)"><g><path d="M 0.65625 -12.625 C 0.757812 -12.625 0.953125 -12.648438 1.234375 -12.703125 C 1.515625 -12.753906 1.796875 -12.894531 2.078125 -13.125 C 2.367188 -13.363281 2.625 -13.722656 2.84375 -14.203125 C 3.0625 -14.679688 3.171875 -15.347656 3.171875 -16.203125 L 5 -16.203125 C 5 -15.160156 4.789062 -14.351562 4.375 -13.78125 C 3.957031 -13.21875 3.328125 -12.832031 2.484375 -12.625 L 6.421875 -12.625 L 6.421875 -12.4375 L 4.140625 -12.4375 L 4.140625 -4.875 C 4.140625 -4.5625 4.15625 -4.179688 4.1875 -3.734375 C 4.226562 -3.285156 4.300781 -2.847656 4.40625 -2.421875 C 4.519531 -1.992188 4.6875 -1.601562 4.90625 -1.25 C 5.125 -0.90625 5.414062 -0.671875 5.78125 -0.546875 C 6.15625 -0.421875 6.515625 -0.421875 6.859375 -0.546875 C 7.210938 -0.671875 7.53125 -0.863281 7.8125 -1.125 C 8.101562 -1.382812 8.363281 -1.679688 8.59375 -2.015625 C 8.820312 -2.347656 9.003906 -2.660156 9.140625 -2.953125 C 9.242188 -3.203125 9.34375 -3.460938 9.4375 -3.734375 C 9.53125 -4.003906 9.625 -4.285156 9.71875 -4.578125 L 9.953125 -4.578125 C 9.859375 -4.265625 9.765625 -3.960938 9.671875 -3.671875 C 9.578125 -3.390625 9.46875 -3.125 9.34375 -2.875 C 9.1875 -2.507812 8.988281 -2.148438 8.75 -1.796875 C 8.519531 -1.453125 8.253906 -1.132812 7.953125 -0.84375 C 7.660156 -0.5625 7.332031 -0.332031 6.96875 -0.15625 C 6.601562 0.0195312 6.203125 0.109375 5.765625 0.109375 C 5.046875 0.109375 4.460938 -0.0351562 4.015625 -0.328125 C 3.578125 -0.628906 3.226562 -1.015625 2.96875 -1.484375 C 2.71875 -1.960938 2.539062 -2.5 2.4375 -3.09375 C 2.34375 -3.6875 2.296875 -4.28125 2.296875 -4.875 L 2.296875 -10.84375 C 2.296875 -11.28125 2.148438 -11.65625 1.859375 -11.96875 C 1.566406 -12.28125 1.164062 -12.4375 0.65625 -12.4375 Z M 0.65625 -12.625 "/></g></g></g><g fill="#000000" fill-opacity="1"><g transform="translate(72.68731, 19.373655)"><g/></g></g><g clip-path="url(#243774351c)"><g fill="#000000" fill-opacity="1"><g transform="translate(78.52526, 19.373655)"><g><path d="M 15.71875 -16.15625 L 15.484375 -16.15625 C 15.097656 -16.570312 14.71875 -16.910156 14.34375 -17.171875 C 13.976562 -17.441406 13.5625 -17.644531 13.09375 -17.78125 C 12.625 -17.914062 12.070312 -18.007812 11.4375 -18.0625 C 10.8125 -18.113281 10.054688 -18.140625 9.171875 -18.140625 L 9.171875 -2.25 C 9.171875 -1.832031 9.191406 -1.488281 9.234375 -1.21875 C 9.273438 -0.945312 9.328125 -0.738281 9.390625 -0.59375 C 9.460938 -0.457031 9.535156 -0.363281 9.609375 -0.3125 C 9.679688 -0.257812 9.734375 -0.234375 9.765625 -0.234375 L 9.765625 0 L 6.703125 0 L 6.703125 -0.234375 C 6.734375 -0.234375 6.785156 -0.257812 6.859375 -0.3125 C 6.929688 -0.363281 7 -0.457031 7.0625 -0.59375 C 7.125 -0.738281 7.179688 -0.945312 7.234375 -1.21875 C 7.285156 -1.488281 7.3125 -1.832031 7.3125 -2.25 L 7.3125 -18.140625 C 6.414062 -18.140625 5.648438 -18.113281 5.015625 -18.0625 C 4.390625 -18.007812 3.847656 -17.914062 3.390625 -17.78125 C 2.929688 -17.644531 2.515625 -17.441406 2.140625 -17.171875 C 1.773438 -16.910156 1.398438 -16.570312 1.015625 -16.15625 L 0.78125 -16.15625 L 0.78125 -18.390625 L 15.71875 -18.390625 Z M 15.71875 -16.15625 "/></g></g></g></g><g fill="#000000" fill-opacity="1"><g transform="translate(95.018127, 19.373655)"><g><path d="M 0.65625 -11.671875 L 3.109375 -12.625 L 3.109375 -2.25 C 3.109375 -1.8125 3.128906 -1.460938 3.171875 -1.203125 C 3.222656 -0.941406 3.28125 -0.734375 3.34375 -0.578125 C 3.414062 -0.429688 3.488281 -0.335938 3.5625 -0.296875 C 3.632812 -0.253906 3.6875 -0.234375 3.71875 -0.234375 L 3.71875 0 L 0.6875 0 L 0.6875 -0.234375 C 0.738281 -0.234375 0.796875 -0.253906 0.859375 -0.296875 C 0.929688 -0.335938 1 -0.429688 1.0625 -0.578125 C 1.125 -0.734375 1.179688 -0.941406 1.234375 -1.203125 C 1.285156 -1.460938 1.3125 -1.8125 1.3125 -2.25 L 1.3125 -10.34375 C 1.238281 -10.8125 1.140625 -11.113281 1.015625 -11.25 C 0.898438 -11.394531 0.804688 -11.46875 0.734375 -11.46875 Z M 2.015625 -14.75 C 1.671875 -14.75 1.378906 -14.863281 1.140625 -15.09375 C 0.898438 -15.332031 0.78125 -15.625 0.78125 -15.96875 C 0.78125 -16.320312 0.898438 -16.613281 1.140625 -16.84375 C 1.378906 -17.082031 1.671875 -17.203125 2.015625 -17.203125 C 2.367188 -17.203125 2.660156 -17.082031 2.890625 -16.84375 C 3.128906 -16.613281 3.25 -16.320312 3.25 -15.96875 C 3.25 -15.625 3.128906 -15.332031 2.890625 -15.09375 C 2.660156 -14.863281 2.367188 -14.75 2.015625 -14.75 Z M 2.015625 -14.75 "/></g></g></g><g clip-path="url(#ab23c35a7c)"><g fill="#000000" fill-opacity="1"><g transform="translate(99.390048, 19.373655)"><g><path d="M 11.28125 -7.078125 C 11.164062 -6.203125 10.992188 -5.398438 10.765625 -4.671875 C 10.535156 -3.953125 10.273438 -3.3125 9.984375 -2.75 C 9.421875 -1.738281 8.78125 -1 8.0625 -0.53125 L 7.75 -0.34375 C 7.300781 -0.0820312 6.820312 0.0820312 6.3125 0.15625 C 5.800781 0.226562 5.296875 0.21875 4.796875 0.125 C 3.890625 -0.03125 3.140625 -0.328125 2.546875 -0.765625 C 1.960938 -1.203125 1.519531 -1.722656 1.21875 -2.328125 C 0.914062 -2.941406 0.738281 -3.613281 0.6875 -4.34375 C 0.632812 -5.082031 0.691406 -5.820312 0.859375 -6.5625 C 1.035156 -7.300781 1.304688 -8.019531 1.671875 -8.71875 C 2.035156 -9.414062 2.484375 -10.035156 3.015625 -10.578125 C 3.660156 -11.242188 4.414062 -11.78125 5.28125 -12.1875 C 6.15625 -12.601562 7.117188 -12.800781 8.171875 -12.78125 C 8.617188 -12.800781 9.097656 -12.757812 9.609375 -12.65625 C 10.128906 -12.5625 10.6875 -12.394531 11.28125 -12.15625 L 11.28125 -16.6875 C 11.21875 -17.132812 11.128906 -17.425781 11.015625 -17.5625 C 10.898438 -17.707031 10.804688 -17.78125 10.734375 -17.78125 L 10.65625 -18.015625 L 13.125 -18.9375 L 13.125 -2.28125 C 13.125 -1.84375 13.144531 -1.492188 13.1875 -1.234375 C 13.226562 -0.972656 13.28125 -0.765625 13.34375 -0.609375 C 13.414062 -0.460938 13.488281 -0.367188 13.5625 -0.328125 C 13.632812 -0.285156 13.6875 -0.265625 13.71875 -0.265625 L 13.71875 -0.03125 L 11.28125 -0.03125 Z M 11.28125 -11.9375 C 10.1875 -12.375 9.140625 -12.59375 8.140625 -12.59375 C 7.210938 -12.5625 6.410156 -12.316406 5.734375 -11.859375 C 5.066406 -11.410156 4.507812 -10.789062 4.0625 -10 C 3.75 -9.425781 3.5 -8.734375 3.3125 -7.921875 C 3.125 -7.109375 3.03125 -6.28125 3.03125 -5.4375 C 3.03125 -4.601562 3.144531 -3.800781 3.375 -3.03125 C 3.601562 -2.269531 3.960938 -1.644531 4.453125 -1.15625 C 4.898438 -0.695312 5.394531 -0.398438 5.9375 -0.265625 C 6.476562 -0.140625 7.046875 -0.226562 7.640625 -0.53125 C 7.992188 -0.71875 8.304688 -0.945312 8.578125 -1.21875 C 8.847656 -1.488281 9.097656 -1.796875 9.328125 -2.140625 C 9.773438 -2.785156 10.132812 -3.507812 10.40625 -4.3125 C 10.675781 -5.125 10.882812 -5.9375 11.03125 -6.75 C 11.09375 -7.101562 11.144531 -7.476562 11.1875 -7.875 C 11.238281 -8.414062 11.265625 -8.992188 11.265625 -9.609375 L 11.28125 -9.609375 Z M 11.28125 -11.9375 "/></g></g></g></g><g fill="#000000" fill-opacity="1"><g transform="translate(113.762408, 19.373655)"><g><path d="M 0.890625 -4.640625 C 0.660156 -5.492188 0.609375 -6.335938 0.734375 -7.171875 C 0.859375 -8.015625 1.125 -8.785156 1.53125 -9.484375 C 1.9375 -10.191406 2.472656 -10.804688 3.140625 -11.328125 C 3.804688 -11.859375 4.566406 -12.238281 5.421875 -12.46875 C 6.328125 -12.707031 7.195312 -12.757812 8.03125 -12.625 C 8.875 -12.5 9.632812 -12.242188 10.3125 -11.859375 C 11 -11.472656 11.585938 -10.984375 12.078125 -10.390625 C 12.566406 -9.796875 12.914062 -9.148438 13.125 -8.453125 C 12.488281 -8.453125 11.804688 -8.425781 11.078125 -8.375 C 10.359375 -8.320312 9.703125 -8.226562 9.109375 -8.09375 C 9.597656 -8.113281 10.046875 -8.03125 10.453125 -7.84375 C 10.867188 -7.65625 11.222656 -7.40625 11.515625 -7.09375 C 11.816406 -6.78125 12.050781 -6.414062 12.21875 -6 C 12.394531 -5.582031 12.503906 -5.144531 12.546875 -4.6875 C 12.617188 -3.738281 12.421875 -2.921875 11.953125 -2.234375 C 11.492188 -1.546875 10.882812 -1.003906 10.125 -0.609375 C 9.363281 -0.222656 8.507812 0 7.5625 0.0625 C 6.625 0.125 5.710938 0 4.828125 -0.3125 C 3.953125 -0.625 3.15625 -1.132812 2.4375 -1.84375 C 1.71875 -2.550781 1.203125 -3.484375 0.890625 -4.640625 Z M 2.4375 -6.515625 C 2.488281 -6.015625 2.566406 -5.546875 2.671875 -5.109375 C 3.003906 -3.847656 3.507812 -2.859375 4.1875 -2.140625 C 4.875 -1.429688 5.613281 -0.941406 6.40625 -0.671875 C 7.195312 -0.410156 7.992188 -0.351562 8.796875 -0.5 C 9.597656 -0.65625 10.296875 -0.957031 10.890625 -1.40625 C 11.484375 -1.863281 11.914062 -2.445312 12.1875 -3.15625 C 12.457031 -3.863281 12.460938 -4.65625 12.203125 -5.53125 C 12.066406 -6 11.835938 -6.425781 11.515625 -6.8125 C 11.203125 -7.195312 10.816406 -7.476562 10.359375 -7.65625 C 9.910156 -7.84375 9.398438 -7.910156 8.828125 -7.859375 C 8.253906 -7.816406 7.640625 -7.609375 6.984375 -7.234375 C 6.359375 -6.859375 5.742188 -6.597656 5.140625 -6.453125 C 4.546875 -6.304688 3.992188 -6.25 3.484375 -6.28125 C 3.285156 -6.300781 3.097656 -6.320312 2.921875 -6.34375 C 2.753906 -6.375 2.59375 -6.429688 2.4375 -6.515625 Z M 11.109375 -8.59375 C 10.859375 -9.144531 10.539062 -9.675781 10.15625 -10.1875 C 9.769531 -10.707031 9.335938 -11.148438 8.859375 -11.515625 C 8.378906 -11.890625 7.851562 -12.15625 7.28125 -12.3125 C 6.707031 -12.46875 6.101562 -12.457031 5.46875 -12.28125 C 4.875 -12.125 4.375 -11.851562 3.96875 -11.46875 C 3.570312 -11.082031 3.253906 -10.632812 3.015625 -10.125 C 2.785156 -9.625 2.625 -9.078125 2.53125 -8.484375 C 2.4375 -7.890625 2.40625 -7.304688 2.4375 -6.734375 C 2.726562 -6.585938 3.078125 -6.5 3.484375 -6.46875 C 3.972656 -6.4375 4.507812 -6.492188 5.09375 -6.640625 C 5.675781 -6.785156 6.273438 -7.035156 6.890625 -7.390625 C 7.617188 -7.804688 8.347656 -8.097656 9.078125 -8.265625 C 9.816406 -8.441406 10.492188 -8.550781 11.109375 -8.59375 Z M 11.109375 -8.59375 "/></g></g></g></g></g><g transform="matrix(1, 0, 0, 1, 31, 27)"><g clip-path="url(#ac5e3f4679)"><g fill="#000000" fill-opacity="1"><g transform="translate(0.826482, 6.963509)"><g><path d="M 3.828125 0 L 2.796875 -1.453125 C 2.679688 -1.441406 2.5625 -1.4375 2.4375 -1.4375 L 1.21875 -1.4375 L 1.21875 0 L 0.734375 0 L 0.734375 -4.53125 L 2.4375 -4.53125 C 3.007812 -4.53125 3.457031 -4.390625 3.78125 -4.109375 C 4.113281 -3.835938 4.28125 -3.457031 4.28125 -2.96875 C 4.28125 -2.613281 4.191406 -2.316406 4.015625 -2.078125 C 3.835938 -1.835938 3.582031 -1.660156 3.25 -1.546875 L 4.359375 0 Z M 2.421875 -1.84375 C 2.867188 -1.84375 3.207031 -1.941406 3.4375 -2.140625 C 3.675781 -2.335938 3.796875 -2.613281 3.796875 -2.96875 C 3.796875 -3.34375 3.675781 -3.625 3.4375 -3.8125 C 3.207031 -4.007812 2.867188 -4.109375 2.421875 -4.109375 L 1.21875 -4.109375 L 1.21875 -1.84375 Z M 2.421875 -1.84375 "/></g></g></g><g fill="#000000" fill-opacity="1"><g transform="translate(10.125031, 6.963509)"><g><path d="M 3.9375 -0.40625 L 3.9375 0 L 0.734375 0 L 0.734375 -4.53125 L 3.84375 -4.53125 L 3.84375 -4.109375 L 1.21875 -4.109375 L 1.21875 -2.5 L 3.5625 -2.5 L 3.5625 -2.09375 L 1.21875 -2.09375 L 1.21875 -0.40625 Z M 3.9375 -0.40625 "/></g></g></g><g fill="#000000" fill-opacity="1"><g transform="translate(19.074157, 6.963509)"><g><path d="M 1.984375 0.03125 C 1.648438 0.03125 1.328125 -0.0195312 1.015625 -0.125 C 0.710938 -0.226562 0.472656 -0.367188 0.296875 -0.546875 L 0.484375 -0.921875 C 0.648438 -0.753906 0.867188 -0.617188 1.140625 -0.515625 C 1.410156 -0.421875 1.691406 -0.375 1.984375 -0.375 C 2.390625 -0.375 2.691406 -0.445312 2.890625 -0.59375 C 3.097656 -0.738281 3.203125 -0.929688 3.203125 -1.171875 C 3.203125 -1.347656 3.144531 -1.488281 3.03125 -1.59375 C 2.925781 -1.707031 2.789062 -1.789062 2.625 -1.84375 C 2.46875 -1.90625 2.25 -1.972656 1.96875 -2.046875 C 1.625 -2.128906 1.347656 -2.207031 1.140625 -2.28125 C 0.941406 -2.363281 0.769531 -2.488281 0.625 -2.65625 C 0.476562 -2.820312 0.40625 -3.046875 0.40625 -3.328125 C 0.40625 -3.554688 0.46875 -3.765625 0.59375 -3.953125 C 0.71875 -4.140625 0.90625 -4.285156 1.15625 -4.390625 C 1.40625 -4.503906 1.710938 -4.5625 2.078125 -4.5625 C 2.335938 -4.5625 2.59375 -4.523438 2.84375 -4.453125 C 3.09375 -4.390625 3.304688 -4.296875 3.484375 -4.171875 L 3.328125 -3.78125 C 3.140625 -3.90625 2.9375 -4 2.71875 -4.0625 C 2.5 -4.125 2.285156 -4.15625 2.078125 -4.15625 C 1.679688 -4.15625 1.382812 -4.078125 1.1875 -3.921875 C 0.988281 -3.773438 0.890625 -3.582031 0.890625 -3.34375 C 0.890625 -3.15625 0.941406 -3.003906 1.046875 -2.890625 C 1.160156 -2.785156 1.300781 -2.703125 1.46875 -2.640625 C 1.632812 -2.585938 1.859375 -2.523438 2.140625 -2.453125 C 2.460938 -2.367188 2.726562 -2.285156 2.9375 -2.203125 C 3.144531 -2.128906 3.316406 -2.007812 3.453125 -1.84375 C 3.597656 -1.6875 3.671875 -1.472656 3.671875 -1.203125 C 3.671875 -0.972656 3.609375 -0.765625 3.484375 -0.578125 C 3.367188 -0.390625 3.179688 -0.238281 2.921875 -0.125 C 2.671875 -0.0195312 2.359375 0.03125 1.984375 0.03125 Z M 1.984375 0.03125 "/></g></g></g><g fill="#000000" fill-opacity="1"><g transform="translate(27.67386, 6.963509)"><g><path d="M 1.625 -4.109375 L 0.03125 -4.109375 L 0.03125 -4.53125 L 3.6875 -4.53125 L 3.6875 -4.109375 L 2.09375 -4.109375 L 2.09375 0 L 1.625 0 Z M 1.625 -4.109375 "/></g></g></g><g fill="#000000" fill-opacity="1"><g transform="translate(36.008261, 6.963509)"><g><path d="M 3.578125 -1.203125 L 1.046875 -1.203125 L 0.515625 0 L 0.015625 0 L 2.078125 -4.53125 L 2.5625 -4.53125 L 4.625 0 L 4.125 0 Z M 3.40625 -1.59375 L 2.3125 -4.03125 L 1.234375 -1.59375 Z M 3.40625 -1.59375 "/></g></g></g><g fill="#000000" fill-opacity="1"><g transform="translate(45.267985, 6.963509)"><g><path d="M 2.5625 0.03125 C 1.976562 0.03125 1.519531 -0.132812 1.1875 -0.46875 C 0.863281 -0.800781 0.703125 -1.289062 0.703125 -1.9375 L 0.703125 -4.53125 L 1.171875 -4.53125 L 1.171875 -1.953125 C 1.171875 -1.429688 1.289062 -1.039062 1.53125 -0.78125 C 1.769531 -0.519531 2.113281 -0.390625 2.5625 -0.390625 C 3.007812 -0.390625 3.351562 -0.519531 3.59375 -0.78125 C 3.832031 -1.039062 3.953125 -1.429688 3.953125 -1.953125 L 3.953125 -4.53125 L 4.421875 -4.53125 L 4.421875 -1.9375 C 4.421875 -1.289062 4.253906 -0.800781 3.921875 -0.46875 C 3.597656 -0.132812 3.144531 0.03125 2.5625 0.03125 Z M 2.5625 0.03125 "/></g></g></g><g fill="#000000" fill-opacity="1"><g transform="translate(55.013024, 6.963509)"><g><path d="M 3.828125 0 L 2.796875 -1.453125 C 2.679688 -1.441406 2.5625 -1.4375 2.4375 -1.4375 L 1.21875 -1.4375 L 1.21875 0 L 0.734375 0 L 0.734375 -4.53125 L 2.4375 -4.53125 C 3.007812 -4.53125 3.457031 -4.390625 3.78125 -4.109375 C 4.113281 -3.835938 4.28125 -3.457031 4.28125 -2.96875 C 4.28125 -2.613281 4.191406 -2.316406 4.015625 -2.078125 C 3.835938 -1.835938 3.582031 -1.660156 3.25 -1.546875 L 4.359375 0 Z M 2.421875 -1.84375 C 2.867188 -1.84375 3.207031 -1.941406 3.4375 -2.140625 C 3.675781 -2.335938 3.796875 -2.613281 3.796875 -2.96875 C 3.796875 -3.34375 3.675781 -3.625 3.4375 -3.8125 C 3.207031 -4.007812 2.867188 -4.109375 2.421875 -4.109375 L 1.21875 -4.109375 L 1.21875 -1.84375 Z M 2.421875 -1.84375 "/></g></g></g><g fill="#000000" fill-opacity="1"><g transform="translate(64.311567, 6.963509)"><g><path d="M 3.578125 -1.203125 L 1.046875 -1.203125 L 0.515625 0 L 0.015625 0 L 2.078125 -4.53125 L 2.5625 -4.53125 L 4.625 0 L 4.125 0 Z M 3.40625 -1.59375 L 2.3125 -4.03125 L 1.234375 -1.59375 Z M 3.40625 -1.59375 "/></g></g></g><g fill="#000000" fill-opacity="1"><g transform="translate(73.571297, 6.963509)"><g><path d="M 4.515625 -4.53125 L 4.515625 0 L 4.125 0 L 1.21875 -3.671875 L 1.21875 0 L 0.734375 0 L 0.734375 -4.53125 L 1.125 -4.53125 L 4.046875 -0.859375 L 4.046875 -4.53125 Z M 4.515625 -4.53125 "/></g></g></g><g fill="#000000" fill-opacity="1"><g transform="translate(83.452218, 6.963509)"><g><path d="M 1.625 -4.109375 L 0.03125 -4.109375 L 0.03125 -4.53125 L 3.6875 -4.53125 L 3.6875 -4.109375 L 2.09375 -4.109375 L 2.09375 0 L 1.625 0 Z M 1.625 -4.109375 "/></g></g></g></g></g></svg>